{"title":"To Be or Not To Be(1983)MPEG-4[DaScubaDude]","uid":15272428,"size":1081440531,"categoryP":"video","categoryS":"movies","magnet":"?xt=urn:btih:059f48df69b4a2362a141cde8762d25775f1f1d4&amp;dn=To+Be+or+Not+To+Be%281983%29MPEG-4%5BDaScubaDude%5D&amp;tr=udp%3A%2F%2Ftracker.leechers-paradise.org%3A6969&amp;tr=udp%3A%2F%2Fzer0day.ch%3A1337&amp;tr=udp%3A%2F%2Fopen.demonii.com%3A1337&amp;tr=udp%3A%2F%2Ftracker.coppersurfer.tk%3A6969&amp;tr=udp%3A%2F%2Fexodus.desync.com%3A6969","seeders":1,"leechers":0,"uploader":"dascuba","files":1,"time":1468277156,"description":"To Be or Not to Be (1983)\r\nPG | 1h 47min | Comedy | 16 December 1983 (USA)\r\nA bad Polish actor is just trying to make a living when what should intrude but World War II in the form of an invasion. His wife has the habit of entertaining young Polish officers while ... See full summary »\r\nDirector: Alan Johnson\r\nWriters: Thomas Meehan (screenplay), Ronny Graham (screenplay) | \r\nStars: Mel Brooks, Anne Bancroft, Ronny Graham |\r\n\r\nGeneral\r\nComplete name                            : ToBe or NotToBeTOBEOR_Title1.mp4\r\nFormat                                   : MPEG-4\r\nFormat profile                           : Base Media\r\nCodec ID                                 : isom (isom/iso2/avc1/mp41)\r\nFile size                                : 1.01 GiB\r\nDuration                                 : 1h 47mn\r\nOverall bit rate                         : 1 346 Kbps\r\nMovie name                               : TOBEOR\r\nGenre                                    : Comedy\r\nWriting application                      : Lavf54.6.100\r\n\r\nVideo\r\nID                                       : 1\r\nFormat                                   : AVC\r\nFormat/Info                              : Advanced Video Codec\r\nFormat profile                           :   \r\nFormat settings, CABAC                   : No\r\nFormat settings, ReFrames                : 6 frames\r\nCodec ID                                 : avc1\r\nCodec ID/Info                            : Advanced Video Coding\r\nDuration                                 : 1h 47mn\r\nBit rate                                 : 1 211 Kbps\r\nWidth                                    : 720 pixels\r\nHeight                                   : 404 pixels\r\nDisplay aspect ratio                     : 16:9\r\nFrame rate mode                          : Constant\r\nFrame rate                               : 29.970 (30000/1001) fps\r\nColor space                              : YUV\r\nChroma subsampling                       : 4:2:0\r\nBit depth                                : 8 bits\r\nScan type                                : Progressive\r\nBits/(Pixel*Frame)                       : 0.139\r\nStream size                              : 928 MiB (90%)\r\n\r\nAudio\r\nID                                       : 2\r\nFormat                                   : AAC\r\nFormat/Info                              : Advanced Audio Codec\r\nFormat profile                           : LC\r\nCodec ID                                 : 40\r\nDuration                                 : 1h 47mn\r\nBit rate mode                            : Constant\r\nBit rate                                 : 128 Kbps\r\nChannel(s)                               : 2 channels\r\nChannel positions                        : Front: L R\r\nSampling rate                            : 44.1 KHz\r\nFrame rate                               : 43.066 fps (1024 spf)\r\nCompression mode                         : Lossy\r\nStream size                              : 98.1 MiB (10%)\r\nDefault                                  : Yes\r\nAlternate group                          : 1","torrent":{"xt":"urn:btih:059f48df69b4a2362a141cde8762d25775f1f1d4","amp;dn":"To+Be+or+Not+To+Be%281983%29MPEG-4%5BDaScubaDude%5D","amp;tr":["udp%3A%2F%2Ftracker.leechers-paradise.org%3A6969","udp%3A%2F%2Fzer0day.ch%3A1337","udp%3A%2F%2Fopen.demonii.com%3A1337","udp%3A%2F%2Ftracker.coppersurfer.tk%3A6969","udp%3A%2F%2Fexodus.desync.com%3A6969"],"infoHash":"059f48df69b4a2362a141cde8762d25775f1f1d4","infoHashBuffer":{"type":"Buffer","data":[5,159,72,223,105,180,162,54,42,20,28,222,135,98,210,87,117,241,241,212]},"announce":[],"urlList":[]}}